<?xml version="1.0" encoding="UTF-8" standalone="no"?>
<svg
   xmlns:dc="http://purl.org/dc/elements/1.1/"
   xmlns:cc="http://creativecommons.org/ns#"
   xmlns:rdf="http://www.w3.org/1999/02/22-rdf-syntax-ns#"
   xmlns:svg="http://www.w3.org/2000/svg"
   xmlns="http://www.w3.org/2000/svg"
   viewBox="0 0 576 576"
   height="576"
   width="576"
   xml:space="preserve"
   id="svg2"
   version="1.1"><metadata
     id="metadata8"><rdf:RDF><cc:Work
         rdf:about=""><dc:format>image/svg+xml</dc:format><dc:type
           rdf:resource="http://purl.org/dc/dcmitype/StillImage" /></cc:Work></rdf:RDF></metadata><defs
     id="defs6"><clipPath
       id="clipPath18"
       clipPathUnits="userSpaceOnUse"><path
         style="clip-rule:evenodd"
         id="path16"
         d="M 6.437e-6,0 H 432.00001 V 432 H 6.437e-6 Z" /></clipPath><clipPath
       id="clipPath26"
       clipPathUnits="userSpaceOnUse"><path
         style="clip-rule:evenodd"
         id="path24"
         d="M 0,432 H 432 V 1.2207e-4 L -1.5259e-5,6.1035e-5" /></clipPath><clipPath
       id="clipPath36"
       clipPathUnits="userSpaceOnUse"><path
         style="clip-rule:evenodd"
         id="path34"
         d="M 0,432 H 432 V 1.2207e-4 L -1.5259e-5,6.1035e-5" /></clipPath><clipPath
       id="clipPath46"
       clipPathUnits="userSpaceOnUse"><path
         style="clip-rule:evenodd"
         id="path44"
         d="M 0,432 H 432 V 0 H 0" /></clipPath><clipPath
       id="clipPath56"
       clipPathUnits="userSpaceOnUse"><path
         style="clip-rule:evenodd"
         id="path54"
         d="M 0,432 H 432 V 0 H 0" /></clipPath></defs><g
     transform="matrix(1.3333333,0,0,-1.3333333,0,576)"
     id="g10"><g
       id="g12"><g
         clip-path="url(#clipPath18)"
         id="g14" /></g><g
       id="g20"><g
         clip-path="url(#clipPath26)"
         id="g22"><path
           id="path28"
           style="fill:#444444;fill-opacity:1;fill-rule:evenodd;stroke:none"
           d="m 53.468,417.43 c 5.837,5.99 15.424,6.11 21.413,0.28 L 420.48,80.907 c 5.99,-5.836 6.11,-15.423 0.27,-21.412 L 378.48,16.12 c -5.83,-5.989 -15.42,-6.113 -21.41,-0.276 L 11.473,352.64 c -5.9886,5.84 -6.1122,15.43 -0.276,21.41 z" /></g></g><g
       id="g30"><g
         clip-path="url(#clipPath36)"
         id="g32"><path
           id="path38"
           style="fill:none;stroke:#444444;stroke-width:1;stroke-linecap:butt;stroke-linejoin:miter;stroke-miterlimit:10;stroke-dasharray:none;stroke-opacity:1"
           d="m 53.468,417.43 c 5.837,5.99 15.424,6.11 21.413,0.28 L 420.48,80.907 c 5.99,-5.836 6.11,-15.423 0.27,-21.412 L 378.48,16.12 c -5.83,-5.989 -15.42,-6.113 -21.41,-0.276 L 11.473,352.64 c -5.9886,5.84 -6.1122,15.43 -0.276,21.41 z" /></g></g><g
       id="g40"><g
         clip-path="url(#clipPath46)"
         id="g42"><path
           id="path48"
           style="fill:#444444;fill-opacity:1;fill-rule:evenodd;stroke:none"
           d="m 423.12,370.53 c 5.74,-6.08 5.47,-15.66 -0.6,-21.41 L 71.845,17.61 C 65.768,11.865 56.185,12.134 50.44,18.211 L 8.8325,62.223 C 3.0875,68.3 3.3567,77.884 9.4337,83.629 L 360.1,415.14 c 6.08,5.75 15.67,5.48 21.41,-0.6 z" /></g></g><g
       id="g50"><g
         clip-path="url(#clipPath56)"
         id="g52"><path
           id="path58"
           style="fill:none;stroke:#444444;stroke-width:1;stroke-linecap:butt;stroke-linejoin:miter;stroke-miterlimit:10;stroke-dasharray:none;stroke-opacity:1"
           d="m 423.12,370.53 c 5.74,-6.08 5.47,-15.66 -0.6,-21.41 L 71.845,17.61 C 65.768,11.865 56.185,12.134 50.44,18.211 L 8.8325,62.223 C 3.0875,68.3 3.3567,77.884 9.4337,83.629 L 360.1,415.14 c 6.08,5.75 15.67,5.48 21.41,-0.6 z" /></g></g></g></svg>