<?xml version="1.0" encoding="UTF-8" standalone="no"?>
<svg
   xmlns:dc="http://purl.org/dc/elements/1.1/"
   xmlns:cc="http://creativecommons.org/ns#"
   xmlns:rdf="http://www.w3.org/1999/02/22-rdf-syntax-ns#"
   xmlns:svg="http://www.w3.org/2000/svg"
   xmlns="http://www.w3.org/2000/svg"
   viewBox="0 0 576 576"
   height="576"
   width="576"
   xml:space="preserve"
   id="svg2"
   version="1.1"><metadata
     id="metadata8"><rdf:RDF><cc:Work
         rdf:about=""><dc:format>image/svg+xml</dc:format><dc:type
           rdf:resource="http://purl.org/dc/dcmitype/StillImage" /></cc:Work></rdf:RDF></metadata><defs
     id="defs6"><clipPath
       id="clipPath18"
       clipPathUnits="userSpaceOnUse"><path
         style="clip-rule:evenodd"
         id="path16"
         d="M 6.437e-6,0 H 432.00001 V 432 H 6.437e-6 Z" /></clipPath></defs><g
     transform="matrix(1.3333333,0,0,-1.3333333,0,576)"
     id="g10"><g
       id="g12"><g
         clip-path="url(#clipPath18)"
         id="g14" /></g><path
       id="path20"
       style="fill:#444;fill-opacity:1;fill-rule:evenodd;stroke:none"
       d="m 35.25,374.25 c 0,3.73 3.022,6.75 6.75,6.75 h 346.5 c 3.73,0 6.75,-3.02 6.75,-6.75 v -27 c 0,-3.73 -3.02,-6.75 -6.75,-6.75 H 42 c -3.728,0 -6.75,3.02 -6.75,6.75 z" /><path
       id="path22"
       style="fill:none;stroke:#444;stroke-width:1;stroke-linecap:butt;stroke-linejoin:miter;stroke-miterlimit:10;stroke-dasharray:none;stroke-opacity:1"
       d="m 35.25,374.25 c 0,3.73 3.022,6.75 6.75,6.75 h 346.5 c 3.73,0 6.75,-3.02 6.75,-6.75 v -27 c 0,-3.73 -3.02,-6.75 -6.75,-6.75 H 42 c -3.728,0 -6.75,3.02 -6.75,6.75 z" /><path
       id="path24"
       style="fill:#444;fill-opacity:1;fill-rule:evenodd;stroke:none"
       d="m 35.25,229.95 c 0,3.73 3.022,6.75 6.75,6.75 h 346.5 c 3.73,0 6.75,-3.02 6.75,-6.75 v -27 c 0,-3.73 -3.02,-6.75 -6.75,-6.75 H 42 c -3.728,0 -6.75,3.02 -6.75,6.75 z" /><path
       id="path26"
       style="fill:none;stroke:#444;stroke-width:1;stroke-linecap:butt;stroke-linejoin:miter;stroke-miterlimit:10;stroke-dasharray:none;stroke-opacity:1"
       d="m 35.25,229.95 c 0,3.73 3.022,6.75 6.75,6.75 h 346.5 c 3.73,0 6.75,-3.02 6.75,-6.75 v -27 c 0,-3.73 -3.02,-6.75 -6.75,-6.75 H 42 c -3.728,0 -6.75,3.02 -6.75,6.75 z" /><path
       id="path28"
       style="fill:#444;fill-opacity:1;fill-rule:evenodd;stroke:none"
       d="m 35.25,85.65 c 0,3.728 3.022,6.75 6.75,6.75 h 346.5 c 3.73,0 6.75,-3.022 6.75,-6.75 v -27 c 0,-3.728 -3.02,-6.75 -6.75,-6.75 L 42,51.9 c -3.728,0 -6.75,3.022 -6.75,6.75 z" /><path
       id="path30"
       style="fill:none;stroke:#444;stroke-width:1;stroke-linecap:butt;stroke-linejoin:miter;stroke-miterlimit:10;stroke-dasharray:none;stroke-opacity:1"
       d="m 35.25,85.65 c 0,3.728 3.022,6.75 6.75,6.75 h 346.5 c 3.73,0 6.75,-3.022 6.75,-6.75 v -27 c 0,-3.728 -3.02,-6.75 -6.75,-6.75 L 42,51.9 c -3.728,0 -6.75,3.022 -6.75,6.75 z" /></g></svg>